<?xml version="1.0" encoding="UTF-8" standalone="no"?>
<!DOCTYPE svg PUBLIC "-//W3C//DTD SVG 1.1//EN" "http://www.w3.org/Graphics/SVG/1.1/DTD/svg11.dtd">
<svg version="1.1" xmlns="http://www.w3.org/2000/svg" xmlns:xlink="http://www.w3.org/1999/xlink" preserveAspectRatio="xMidYMid meet" viewBox="0 -3.552713678800501e-15 1536 1234.7804877284036" width="1536" height="1234.78"><defs><path d="M1536 452.79C1536 587.12 1422.58 696.19 1282.87 696.19C1143.17 696.19 1029.74 587.12 1029.74 452.79C1029.74 318.46 1143.17 209.4 1282.87 209.4C1422.58 209.4 1536 318.46 1536 452.79Z" id="b5oNxtkrg8"></path><path d="M509 991.39C509 1125.72 395.58 1234.78 255.88 1234.78C116.17 1234.78 2.75 1125.72 2.75 991.39C2.75 857.05 116.17 747.99 255.88 747.99C395.58 747.99 509 857.05 509 991.39Z" id="dcHJURXxT"></path><path d="M270.66 972.94L1313.57 424.75L1431.17 649.08L388.26 1197.27L270.66 972.94Z" id="a75JuPZAVl"></path><path d="M0 998.21L267.91 998.21L267.91 1234.78L0 1234.78L0 998.21Z" id="d2a8QQyRf8"></path><path d="M2.75 0L1536 0L1536 452.79L2.75 452.79L2.75 0Z" id="aiBYPHUzp"></path><path d="M1.37 432.52L1054.86 432.52L1054.86 833.58L1.37 833.58L1.37 432.52Z" id="b7beuBP4vZ"></path><path d="M0 664.99L623.27 664.99L623.27 1045.78L0 1045.78L0 664.99Z" id="ahKbGL6MI"></path></defs><g><g><g><use xlink:href="#b5oNxtkrg8" opacity="1" fill="#00f89e" fill-opacity="1"></use></g><g><use xlink:href="#dcHJURXxT" opacity="1" fill="#00f89e" fill-opacity="1"></use></g><g><use xlink:href="#a75JuPZAVl" opacity="1" fill="#00f89e" fill-opacity="1"></use></g><g><use xlink:href="#d2a8QQyRf8" opacity="1" fill="#00f89e" fill-opacity="1"></use></g><g><use xlink:href="#aiBYPHUzp" opacity="1" fill="#00f89e" fill-opacity="1"></use></g><g><use xlink:href="#b7beuBP4vZ" opacity="1" fill="#00f89e" fill-opacity="1"></use></g><g><use xlink:href="#ahKbGL6MI" opacity="1" fill="#00f89e" fill-opacity="1"></use></g></g></g></svg>